# Blender 3.5.0
# www.blender.org
mtllib lips bron.mtl
o lips
v 0.022538 3.175914 0.194888
v 0.041824 3.191983 0.192028
v 0.072505 3.227494 0.175127
v 0.057833 3.215326 0.194750
v 0.056369 3.227067 0.199132
v 0.041699 3.208623 0.210164
v 0.083863 3.237852 0.149060
v 0.070122 3.234335 0.177693
v 0.090148 3.242700 0.142565
v 0.082369 3.239626 0.147670
v 0.067199 3.240272 0.175312
v 0.087068 3.243004 0.143909
v 0.040911 3.223021 0.214852
v 0.053879 3.237501 0.196552
v 0.021643 3.218808 0.226976
v 0.022290 3.203751 0.220364
v -0.000002 3.216911 0.231080
v 0.038731 3.235205 0.212617
v 0.020151 3.233615 0.224913
v 0.051103 3.242288 0.189596
v 0.081075 3.240927 0.146148
v 0.079846 3.242834 0.143674
v 0.084162 3.243118 0.144782
v 0.083135 3.244692 0.151113
v 0.085167 3.246933 0.153550
v 0.068609 3.248421 0.176517
v 0.086546 3.248972 0.154079
v 0.055211 3.249935 0.197175
v 0.070772 3.253204 0.178568
v 0.038795 3.252102 0.213520
v 0.056401 3.258301 0.198237
v 0.072434 3.258919 0.177996
v 0.019989 3.253193 0.225007
v 0.020162 3.264721 0.225732
v 0.039104 3.262289 0.214776
v 0.057818 3.266533 0.195885
v 0.019590 3.276544 0.222103
v -0.000002 3.276780 0.226607
v 0.038802 3.273617 0.211612
v 0.019732 3.304477 0.215571
v 0.032039 3.319097 0.219888
v 0.033186 3.309103 0.177483
v 0.045578 3.328890 0.195212
v 0.043898 3.346580 0.192082
v 0.047837 3.344681 0.169618
v 0.047418 3.327641 0.167615
v 0.081217 3.305500 0.153454
v 0.067944 3.290714 0.165536
v 0.111344 3.309397 0.140195
v 0.016169 3.426478 0.142140
v 0.111973 3.425685 0.083855
v 0.012284 3.426650 0.155786
v 0.022737 3.437647 0.162247
v 0.071056 3.471483 0.131130
v 0.113589 3.445325 0.101364
v 0.104585 3.483994 0.139014
v 0.093689 3.516182 0.115372
v 0.041699 3.208623 0.210164
v 0.022290 3.203751 0.220364
v -0.000002 3.167873 0.198140
v -0.000002 3.173003 0.205733
v 0.162075 3.206521 0.023708
v 0.165464 3.186244 -0.017315
v 0.094288 3.199273 -0.019083
v 0.082095 3.164786 0.011296
v 0.152921 3.179095 0.050314
v 0.136306 3.148113 0.079386
v 0.090534 3.175678 0.132050
v -0.000002 3.611783 0.062266
v 0.094288 3.199273 -0.019083
v 0.082095 3.164786 0.011296
v 0.144963 3.318210 -0.002644
v 0.169567 3.316739 -0.008832
v 0.192117 3.349660 -0.046470
v 0.142573 3.382450 -0.032578
v 0.135636 3.384716 -0.013012
v 0.018680 3.244123 0.213937
v 0.036529 3.244179 0.205942
v 0.051564 3.244326 0.190776
v 0.065310 3.245005 0.171007
v 0.080750 3.243427 0.147598
v 0.018962 3.241765 0.214063
v 0.036021 3.241842 0.205006
v 0.064158 3.243431 0.169611
v 0.066772 3.456639 0.166495
v 0.009738 3.428032 0.151534
v 0.008231 3.430237 0.152669
v 0.106315 3.474126 0.143031
v 0.098111 3.477165 0.152000
v 0.116804 3.464219 0.123878
v 0.073499 3.458628 0.156138
v 0.118832 3.450547 0.110268
v 0.119879 3.443316 0.098265
v 0.112132 3.445593 0.102297
v 0.019349 3.427634 0.159393
v 0.012213 3.424359 0.158395
v -0.072503 3.227494 0.175127
v -0.057833 3.215326 0.194750
v -0.056369 3.227067 0.199132
v -0.041698 3.208623 0.210164
v -0.083861 3.237852 0.149060
v -0.070125 3.234335 0.177693
v -0.090148 3.242700 0.142565
v -0.082369 3.239626 0.147670
v -0.067199 3.240272 0.175312
v -0.087068 3.243004 0.143909
v -0.040909 3.223021 0.214852
v -0.053877 3.237501 0.196552
v -0.021643 3.218808 0.226976
v -0.022293 3.203751 0.220364
v -0.000002 3.202011 0.223010
v -0.038731 3.235205 0.212617
v -0.020151 3.233615 0.224913
v -0.000002 3.232146 0.230170
v -0.018965 3.241765 0.214063
v -0.000002 3.241455 0.219637
v -0.036021 3.241842 0.205006
v -0.051103 3.242288 0.189596
v -0.081075 3.240927 0.146148
v -0.079844 3.242834 0.143674
v -0.084165 3.243118 0.144782
v -0.083135 3.244692 0.151113
v -0.085165 3.246933 0.153550
v -0.068609 3.248421 0.176517
v -0.065310 3.245005 0.171007
v -0.086550 3.248972 0.154079
v -0.055213 3.249935 0.197175
v -0.070772 3.253204 0.178568
v -0.038795 3.252102 0.213520
v -0.056401 3.258301 0.198237
v -0.072434 3.258919 0.177996
v -0.019989 3.253193 0.225007
v -0.000002 3.243839 0.217743
v -0.000002 3.252920 0.228492
v -0.020162 3.264721 0.225732
v -0.000002 3.264604 0.229922
v -0.039104 3.262289 0.214776
v -0.057818 3.266533 0.195885
v -0.019590 3.276544 0.222103
v -0.038802 3.273617 0.211612
v -0.019732 3.304477 0.215571
v -0.000002 3.300144 0.224040
v -0.000002 3.313471 0.239117
v -0.032043 3.319097 0.219888
v -0.093408 3.325152 0.150580
v -0.135835 3.327478 0.063758
v -0.137632 3.339521 0.031720
v -0.116374 3.467574 0.053964
v -0.116929 3.456521 0.086342
v -0.110091 3.492634 0.102860
v -0.111710 3.502819 0.099058
v -0.115891 3.475315 0.116405
v -0.108558 3.510411 0.090979
v -0.022737 3.437647 0.162247
v -0.012284 3.426650 0.155786
v -0.014227 3.426565 0.148966
v -0.071059 3.471483 0.131130
v -0.057681 3.475831 0.135775
v -0.057833 3.215326 0.194750
v -0.041698 3.208623 0.210164
v -0.022293 3.203751 0.220364
v -0.165464 3.186244 -0.017315
v -0.121861 3.194146 -0.018653
v -0.110376 3.203209 0.110393
v -0.122569 3.435252 0.021129
v -0.149978 3.333860 -0.000783
v -0.124224 3.419678 -0.024255
v -0.134954 3.441437 -0.053166
v -0.192117 3.349660 -0.046470
v -0.165145 3.336820 -0.011967
v -0.134201 3.374285 -0.012772
v -0.018678 3.244123 0.213937
v -0.036529 3.244179 0.205942
v -0.051564 3.244326 0.190776
v -0.080750 3.243427 0.147598
v -0.064158 3.243431 0.169611
v -0.116804 3.464219 0.123878
v -0.089253 3.460032 0.144716
v -0.106315 3.474126 0.143031
v -0.098111 3.477165 0.152000
v -0.073497 3.458628 0.156138
v -0.096378 3.458522 0.138208
v -0.112130 3.445593 0.102297
v -0.019349 3.427634 0.159393
v 0.057683 3.475831 0.135775
v 0.017723 3.441636 0.143292
v 0.065139 3.461482 0.136410
v 0.071056 3.471483 0.131130
v -0.025262 3.459046 0.142204
v -0.065139 3.461482 0.136410
v -0.071059 3.471483 0.131130
vn 0.8061 -0.2098 0.5533
vn 0.8725 -0.1042 0.4773
vn 0.7638 0.1191 0.6344
vn 0.6317 -0.2260 0.7415
vn 0.7643 0.4205 0.4889
vn 0.6413 0.4238 0.6396
vn 0.3756 0.7177 0.5864
vn 0.6039 0.6850 0.4075
vn 0.4674 -0.2364 0.8518
vn 0.3442 -0.2710 0.8989
vn 0.6386 0.0837 0.7650
vn 0.5825 0.6043 0.5436
vn 0.3942 -0.1287 0.9100
vn 0.3298 -0.3677 0.8695
vn -0.0000 -0.4369 0.8995
vn -0.0000 -0.0918 0.9958
vn 0.5016 0.5322 0.6820
vn 0.3009 0.4987 0.8129
vn -0.0001 0.5875 0.8092
vn -0.1227 0.9833 -0.1343
vn -0.0000 0.8910 -0.4540
vn -0.1915 0.9749 -0.1139
vn -0.2955 0.9516 -0.0843
vn -0.1337 0.9910 0.0024
vn 0.2568 0.8416 0.4752
vn -0.9284 0.1583 0.3361
vn -0.0299 -0.0114 0.9995
vn 0.2538 -0.9301 0.2657
vn -0.4836 -0.8753 -0.0020
vn 0.5036 -0.7243 0.4710
vn 0.4784 -0.7869 0.3898
vn -0.2900 -0.9446 -0.1538
vn 0.6683 -0.4631 0.5822
vn 0.6160 -0.5857 0.5268
vn -0.1353 -0.9809 -0.1395
vn 0.7436 -0.3641 0.5607
vn 0.5528 -0.3997 0.7312
vn -0.0044 -0.9957 -0.0929
vn 0.7368 -0.0880 0.6703
vn 0.8141 0.0067 0.5807
vn 0.2825 -0.5624 0.7771
vn -0.0493 -0.9588 -0.2798
vn -0.0000 -0.9732 0.2300
vn 0.0001 -0.3436 0.9391
vn 0.3817 0.0672 0.9218
vn -0.0000 0.1507 0.9886
vn 0.6199 0.0636 0.7821
vn 0.7390 0.2747 0.6152
vn 0.3577 0.4840 0.7986
vn -0.0001 0.5354 0.8446
vn 0.5715 0.4463 0.6887
vn -0.8726 -0.1043 0.4772
vn -0.8061 -0.2098 0.5533
vn -0.7637 0.1191 0.6344
vn -0.6317 -0.2261 0.7415
vn -0.7643 0.4204 0.4889
vn -0.6413 0.4237 0.6397
vn -0.3748 0.7175 0.5872
vn -0.6038 0.6851 0.4075
vn -0.3443 -0.2711 0.8989
vn -0.4673 -0.2366 0.8518
vn -0.6386 0.0837 0.7650
vn -0.5825 0.6043 0.5436
vn -0.3942 -0.1286 0.9100
vn -0.3300 -0.3676 0.8695
vn -0.5016 0.5322 0.6820
vn -0.3010 0.4987 0.8128
vn 0.1228 0.9833 -0.1343
vn 0.1916 0.9748 -0.1139
vn 0.2955 0.9516 -0.0843
vn 0.1337 0.9910 0.0024
vn -0.2568 0.8416 0.4752
vn 0.9284 0.1583 0.3363
vn 0.0296 -0.0115 0.9995
vn -0.2544 -0.9300 0.2653
vn 0.4837 -0.8753 -0.0019
vn -0.5034 -0.7245 0.4709
vn -0.4784 -0.7869 0.3898
vn 0.2900 -0.9446 -0.1538
vn -0.6682 -0.4632 0.5822
vn -0.6160 -0.5857 0.5268
vn 0.1354 -0.9809 -0.1395
vn -0.7436 -0.3642 0.5607
vn -0.5528 -0.3996 0.7312
vn 0.0044 -0.9957 -0.0927
vn -0.7369 -0.0879 0.6703
vn -0.8141 0.0067 0.5807
vn -0.2826 -0.5625 0.7770
vn 0.0492 -0.9588 -0.2798
vn -0.3817 0.0671 0.9218
vn -0.6199 0.0636 0.7821
vn -0.7390 0.2747 0.6152
vn -0.3577 0.4840 0.7986
vn -0.5715 0.4463 0.6887
vt 0.787686 0.250153
vt 0.820131 0.218860
vt 0.832748 0.234506
vt 0.852281 0.196892
vt 0.750321 0.281695
vt 0.797345 0.258457
vt 0.738631 0.295299
vt 0.752163 0.285141
vt 0.802263 0.268841
vt 0.744121 0.294206
vt 0.865088 0.216542
vt 0.839461 0.250854
vt 0.898781 0.195787
vt 0.884619 0.174925
vt 0.933709 0.176612
vt 0.873368 0.234506
vt 0.908273 0.216947
vt 0.840590 0.264849
vt 0.753708 0.287766
vt 0.755632 0.291200
vt 0.748860 0.293065
vt 0.754539 0.301904
vt 0.754563 0.307452
vt 0.802322 0.306015
vt 0.753815 0.311005
vt 0.842455 0.306395
vt 0.801967 0.315269
vt 0.881590 0.307559
vt 0.842277 0.319963
vt 0.799649 0.325083
vt 0.919916 0.309733
vt 0.920356 0.327542
vt 0.882528 0.323598
vt 0.838617 0.333470
vt 0.918740 0.346610
vt 0.954905 0.350258
vt 0.880829 0.341740
vt 0.916091 0.287754
vt 0.878489 0.290237
vt 0.839949 0.291794
vt 0.799472 0.294621
vt 0.754742 0.295417
vt 0.912040 0.237714
vt 0.877147 0.250545
vt 0.802668 0.280198
vt 0.787686 0.250153
vt 0.820131 0.218860
vt 0.832748 0.234506
vt 0.852281 0.196892
vt 0.750321 0.281695
vt 0.797345 0.258457
vt 0.738631 0.295299
vt 0.752163 0.285141
vt 0.802263 0.268841
vt 0.744121 0.294206
vt 0.865088 0.216542
vt 0.839461 0.250854
vt 0.898781 0.195787
vt 0.884619 0.174925
vt 0.918371 0.151734
vt 0.873368 0.234506
vt 0.908273 0.216947
vt 0.942750 0.201395
vt 0.912040 0.237714
vt 0.946635 0.224004
vt 0.877147 0.250545
vt 0.840590 0.264849
vt 0.753708 0.287766
vt 0.755632 0.291200
vt 0.748860 0.293065
vt 0.754539 0.301904
vt 0.754563 0.307452
vt 0.802322 0.306015
vt 0.799472 0.294621
vt 0.753815 0.311005
vt 0.842455 0.306395
vt 0.801967 0.315269
vt 0.881590 0.307559
vt 0.842277 0.319963
vt 0.799649 0.325083
vt 0.919916 0.309733
vt 0.952088 0.285461
vt 0.956638 0.307963
vt 0.920356 0.327542
vt 0.957578 0.328492
vt 0.882528 0.323598
vt 0.838617 0.333470
vt 0.918740 0.346610
vt 0.880829 0.341740
vt 0.916091 0.287754
vt 0.878489 0.290237
vt 0.839949 0.291794
vt 0.754742 0.295417
vt 0.802668 0.280198
s 1
usemtl basketballer_head.004
f 4/2/1 3/1/2 5/3/3
f 6/4/4 4/2/1 5/3/3
f 3/1/2 8/6/5 5/3/3
f 8/6/5 3/1/2 7/5/6
f 10/8/7 8/6/5 7/5/6
f 5/3/3 8/6/5 11/9/8
f 11/9/8 8/6/5 10/8/7
f 9/7/9 12/10/10 7/5/6
f 12/10/10 10/8/7 7/5/6
f 13/11/11 6/4/4 5/3/3
f 14/12/12 5/3/3 11/9/8
f 13/11/11 5/3/3 14/12/12
f 13/11/11 15/13/13 6/4/4
f 15/13/13 16/14/14 6/4/4
f 16/14/14 15/13/13 111/60/15
f 15/13/13 17/15/16 111/60/15
f 15/13/13 13/11/11 18/16/17
f 18/16/17 13/11/11 14/12/12
f 15/13/13 19/17/18 17/15/16
f 19/17/18 15/13/13 18/16/17
f 19/17/18 114/63/19 17/15/16
f 19/17/18 82/43/20 114/63/19
f 82/43/20 116/65/21 114/63/19
f 82/43/20 19/17/18 83/44/22
f 19/17/18 18/16/17 83/44/22
f 83/44/22 18/16/17 20/18/23
f 18/16/17 14/12/12 20/18/23
f 20/18/23 14/12/12 84/45/24
f 14/12/12 11/9/8 84/45/24
f 11/9/8 21/19/25 84/45/24
f 21/19/25 11/9/8 10/8/7
f 21/19/25 22/20/26 84/45/24
f 23/21/27 21/19/25 10/8/7
f 22/20/26 21/19/25 23/21/27
f 12/10/10 23/21/27 10/8/7
f 23/21/27 24/22/28 22/20/26
f 24/22/28 23/21/27 12/10/10
f 24/22/28 81/42/29 22/20/26
f 25/23/30 24/22/28 12/10/10
f 25/23/30 12/10/10 9/7/9
f 81/42/29 24/22/28 26/24/31
f 26/24/31 24/22/28 25/23/30
f 80/41/32 81/42/29 26/24/31
f 27/25/33 25/23/30 9/7/9
f 80/41/32 26/24/31 28/26/34
f 79/40/35 80/41/32 28/26/34
f 29/27/36 26/24/31 25/23/30
f 29/27/36 25/23/30 27/25/33
f 28/26/34 26/24/31 29/27/36
f 79/40/35 28/26/34 30/28/37
f 78/39/38 79/40/35 30/28/37
f 31/29/39 28/26/34 29/27/36
f 30/28/37 28/26/34 31/29/39
f 32/30/40 29/27/36 27/25/33
f 31/29/39 29/27/36 32/30/40
f 30/28/37 33/31/41 78/39/38
f 33/31/41 77/38/42 78/39/38
f 133/82/43 77/38/42 33/31/41
f 134/83/44 133/82/43 33/31/41
f 134/83/44 33/31/41 34/32/45
f 33/31/41 30/28/37 34/32/45
f 136/85/46 134/83/44 34/32/45
f 35/33/47 30/28/37 31/29/39
f 30/28/37 35/33/47 34/32/45
f 36/34/48 31/29/39 32/30/40
f 35/33/47 31/29/39 36/34/48
f 136/85/46 34/32/45 37/35/49
f 38/36/50 136/85/46 37/35/49
f 34/32/45 35/33/47 39/37/51
f 39/37/51 35/33/47 36/34/48
f 37/35/49 34/32/45 39/37/51
f 97/46/52 98/47/53 99/48/54
f 98/47/53 100/49/55 99/48/54
f 102/51/56 97/46/52 99/48/54
f 97/46/52 102/51/56 101/50/57
f 102/51/56 104/53/58 101/50/57
f 102/51/56 99/48/54 105/54/59
f 102/51/56 105/54/59 104/53/58
f 106/55/60 103/52/61 101/50/57
f 104/53/58 106/55/60 101/50/57
f 100/49/55 107/56/62 99/48/54
f 99/48/54 108/57/63 105/54/59
f 99/48/54 107/56/62 108/57/63
f 109/58/64 107/56/62 100/49/55
f 110/59/65 109/58/64 100/49/55
f 109/58/64 110/59/65 111/60/15
f 17/15/16 109/58/64 111/60/15
f 107/56/62 109/58/64 112/61/66
f 107/56/62 112/61/66 108/57/63
f 113/62/67 109/58/64 17/15/16
f 109/58/64 113/62/67 112/61/66
f 114/63/19 113/62/67 17/15/16
f 115/64/68 113/62/67 114/63/19
f 116/65/21 115/64/68 114/63/19
f 113/62/67 115/64/68 117/66/69
f 112/61/66 113/62/67 117/66/69
f 112/61/66 117/66/69 118/67/70
f 108/57/63 112/61/66 118/67/70
f 108/57/63 118/67/70 176/94/71
f 105/54/59 108/57/63 176/94/71
f 119/68/72 105/54/59 176/94/71
f 105/54/59 119/68/72 104/53/58
f 120/69/73 119/68/72 176/94/71
f 119/68/72 121/70/74 104/53/58
f 119/68/72 120/69/73 121/70/74
f 121/70/74 106/55/60 104/53/58
f 122/71/75 121/70/74 120/69/73
f 121/70/74 122/71/75 106/55/60
f 175/93/76 122/71/75 120/69/73
f 122/71/75 123/72/77 106/55/60
f 106/55/60 123/72/77 103/52/61
f 122/71/75 175/93/76 124/73/78
f 122/71/75 124/73/78 123/72/77
f 175/93/76 125/74/79 124/73/78
f 123/72/77 126/75/80 103/52/61
f 124/73/78 125/74/79 127/76/81
f 125/74/79 174/92/82 127/76/81
f 124/73/78 128/77/83 123/72/77
f 123/72/77 128/77/83 126/75/80
f 124/73/78 127/76/81 128/77/83
f 127/76/81 174/92/82 129/78/84
f 174/92/82 173/91/85 129/78/84
f 127/76/81 130/79/86 128/77/83
f 127/76/81 129/78/84 130/79/86
f 128/77/83 131/80/87 126/75/80
f 128/77/83 130/79/86 131/80/87
f 132/81/88 129/78/84 173/91/85
f 172/90/89 132/81/88 173/91/85
f 172/90/89 133/82/43 132/81/88
f 133/82/43 134/83/44 132/81/88
f 132/81/88 134/83/44 135/84/90
f 129/78/84 132/81/88 135/84/90
f 134/83/44 136/85/46 135/84/90
f 129/78/84 137/86/91 130/79/86
f 137/86/91 129/78/84 135/84/90
f 130/79/86 138/87/92 131/80/87
f 130/79/86 137/86/91 138/87/92
f 135/84/90 136/85/46 139/88/93
f 136/85/46 38/36/50 139/88/93
f 137/86/91 135/84/90 140/89/94
f 137/86/91 140/89/94 138/87/92
f 135/84/90 139/88/93 140/89/94
l 162 163
l 185 187
l 185 188
l 58 59
l 159 160
l 42 43
l 64 65
l 148 149
l 43 45
l 43 46
l 1 2
l 44 45
l 47 48
l 141 144
l 160 161
l 70 71
l 40 41
l 60 61
l 92 93
l 142 143
l 66 67
l 157 158
l 62 63
l 62 66
