# Blender 3.5.0
# www.blender.org
mtllib teeth eye bron.mtl
o basketballer_angry_head.002
v 0.083135 3.244692 0.151113
v 0.033186 3.309103 0.177483
v 0.050540 3.300668 0.172906
v 0.067944 3.290714 0.165536
v 0.095906 3.292268 0.149080
v 0.110837 3.274781 0.139006
v 0.133135 3.239822 0.083178
v 0.139290 3.269139 0.066892
v 0.074686 3.385342 0.129159
v 0.062227 3.379588 0.134155
v 0.042731 3.379685 0.137586
v 0.079790 3.392053 0.125983
v 0.030633 3.384447 0.138385
v 0.085523 3.446680 0.119850
v 0.014224 3.426565 0.148966
v 0.017723 3.441636 0.143292
v 0.057141 3.456927 0.167158
v 0.071056 3.471483 0.131130
v 0.081313 3.461679 0.124315
v 0.022538 3.175914 0.194888
v 0.132647 3.395676 -0.008416
v 0.129878 3.395148 0.023179
v 0.125723 3.324192 -0.013471
v 0.115869 3.251892 -0.016860
v 0.094288 3.199273 -0.019083
v 0.126979 3.431306 -0.012037
v 0.107462 3.345430 -0.069706
v 0.125723 3.324192 -0.013471
v 0.069359 3.022904 -0.234088
v 0.116203 3.052353 -0.190960
v 0.142628 3.071845 -0.107586
v -0.000002 3.112177 0.065652
v 0.105263 3.381458 -0.081645
v 0.174798 3.318055 -0.040424
v 0.065310 3.245005 0.171007
v 0.080750 3.243427 0.147598
v 0.018680 3.303770 0.039152
v 0.065310 3.299067 0.027598
v 0.064158 3.205619 0.137099
v 0.062041 3.239601 0.137247
v 0.060898 3.200356 0.093627
v 0.066353 3.239601 0.103150
v 0.057129 3.200356 0.126546
v 0.060898 3.194003 0.092144
v 0.049617 3.239601 0.170737
v 0.057129 3.194003 0.125066
v 0.045696 3.200356 0.158429
v 0.045696 3.194003 0.156945
v 0.027816 3.239601 0.196354
v 0.025532 3.200356 0.182436
v 0.025532 3.194003 0.180950
v -0.000002 3.200356 0.190457
v -0.000002 3.194003 0.188975
v -0.025532 3.194003 0.180950
v -0.025532 3.200356 0.182436
v -0.045696 3.194003 0.156945
v -0.045696 3.200356 0.158429
v -0.057129 3.194003 0.125066
v -0.027816 3.239601 0.196354
v -0.000002 3.239601 0.205753
v -0.049617 3.239601 0.170737
v -0.057129 3.200356 0.126546
v -0.060901 3.194003 0.092144
v -0.062039 3.239601 0.137247
v -0.060901 3.200356 0.093627
v -0.066353 3.239601 0.103150
v 0.068420 3.239601 0.139715
v 0.066353 3.239601 0.103150
v 0.073440 3.239601 0.104088
v 0.062041 3.239601 0.137247
v 0.032786 3.197485 0.040518
v 0.062041 3.246058 0.137846
v 0.066353 3.246058 0.103747
v 0.060898 3.285304 0.094223
v 0.057129 3.291955 0.125622
v 0.060898 3.291955 0.092699
v 0.045696 3.291955 0.157504
v 0.025532 3.291955 0.181509
v -0.000002 3.291955 0.189532
v -0.025532 3.291955 0.181509
v -0.045696 3.291955 0.157504
v -0.057129 3.285304 0.127143
v -0.057129 3.291955 0.125622
v -0.062039 3.246058 0.137846
v -0.060901 3.285304 0.094223
v -0.060901 3.291955 0.092699
v -0.066353 3.246058 0.103747
v 0.068420 3.246058 0.140309
v 0.073440 3.246058 0.104684
v 0.066353 3.246058 0.103747
v 0.062041 3.246058 0.137846
v 0.054708 3.246058 0.175888
v 0.049617 3.246058 0.171334
v 0.030788 3.246058 0.203598
v 0.027816 3.246058 0.196947
v 0.065065 3.456631 0.158620
v 0.056465 3.453897 0.159066
v 0.021557 3.445645 0.152076
v 0.078526 3.477037 0.165746
v 0.032934 3.437585 0.162255
v 0.018261 3.430177 0.161764
v 0.073440 3.239601 0.104088
v 0.068420 3.239601 0.139715
v 0.030788 3.194003 0.192713
v -0.000002 3.194003 0.203899
v -0.030787 3.194003 0.192713
v -0.054708 3.200356 0.166493
v -0.054708 3.194003 0.165007
v -0.068422 3.200356 0.130912
v -0.068422 3.194003 0.129428
v -0.073440 3.200356 0.095285
v -0.073440 3.194003 0.093803
v -0.073440 3.239601 0.104088
v -0.068422 3.239601 0.139715
v -0.079844 3.242834 0.143674
v -0.083135 3.244692 0.151113
v -0.065310 3.245005 0.171007
v -0.033186 3.309103 0.177483
v -0.050540 3.300668 0.172906
v -0.067942 3.290714 0.165536
v -0.095906 3.292268 0.149080
v -0.110837 3.274781 0.139006
v -0.133135 3.239822 0.083178
v -0.139290 3.269139 0.066892
v -0.016169 3.426478 0.142140
v -0.018194 3.405242 0.141473
v -0.023852 3.391434 0.138843
v -0.030633 3.384447 0.138385
v -0.042731 3.379685 0.137586
v -0.062227 3.379588 0.134155
v -0.074686 3.385342 0.129159
v -0.079794 3.392053 0.125983
v -0.085303 3.404270 0.121749
v -0.086762 3.427259 0.119379
v -0.085526 3.446680 0.119850
v -0.081313 3.461679 0.124315
v -0.057681 3.475831 0.135775
v -0.043871 3.473830 0.139973
v -0.033492 3.467583 0.140918
v -0.025262 3.459046 0.142204
v -0.022538 3.175914 0.194888
v -0.125723 3.324192 -0.013471
v -0.115867 3.251892 -0.016860
v -0.094286 3.199273 -0.019083
v -0.082095 3.164786 0.011296
v -0.000002 3.015662 -0.249446
v -0.107460 3.345430 -0.069706
v -0.105263 3.381458 -0.081645
v -0.174798 3.318055 -0.040424
v -0.180527 3.338719 -0.065039
v -0.137142 3.367029 -0.005177
v -0.000002 3.281282 0.185234
v -0.080750 3.243427 0.147598
v -0.036529 3.302853 0.035303
v -0.051564 3.302053 0.031854
v -0.064158 3.205619 0.137099
v -0.068422 3.239601 0.139715
v -0.073440 3.239601 0.104088
v -0.066353 3.239601 0.103150
v -0.062039 3.239601 0.137247
v -0.058647 3.221723 0.040518
v -0.064167 3.221992 0.075807
v -0.032786 3.197485 0.040518
v -0.068422 3.246058 0.140309
v -0.066353 3.246058 0.103747
v -0.073440 3.246058 0.104684
v -0.062039 3.246058 0.137846
v -0.054708 3.246058 0.175888
v -0.049617 3.246058 0.171334
v -0.030787 3.246058 0.203598
v -0.027816 3.246058 0.196947
v -0.000002 3.246058 0.206346
v -0.000002 3.246058 0.214782
v -0.000002 3.246058 0.214782
v -0.030787 3.285304 0.194792
v -0.030787 3.246058 0.203598
v -0.054708 3.246058 0.175888
v -0.054708 3.285304 0.167086
v -0.068422 3.246058 0.140309
v -0.068422 3.285304 0.131507
v -0.073440 3.246058 0.104684
v -0.073440 3.285304 0.095882
v -0.073440 3.291955 0.094358
v -0.068422 3.291955 0.129983
v -0.054708 3.291955 0.165562
v -0.030787 3.291955 0.193275
v -0.000002 3.285304 0.205980
v -0.000002 3.291955 0.204459
v 0.030788 3.291955 0.193275
v 0.030788 3.285304 0.194792
v 0.030788 3.246058 0.203598
v 0.054708 3.291955 0.165562
v 0.054708 3.246058 0.175888
v 0.054708 3.285304 0.167086
v 0.068420 3.291955 0.129983
v 0.068420 3.246058 0.140309
v 0.068420 3.285304 0.131507
v 0.073440 3.291955 0.094358
v 0.073440 3.246058 0.104684
v 0.073440 3.285304 0.095882
v -0.089253 3.460032 0.144716
v -0.078175 3.463057 0.144379
v -0.066137 3.478882 0.163709
v -0.057524 3.453195 0.167116
v -0.011244 3.425828 0.150404
v -0.009738 3.428032 0.151534
v -0.056373 3.474955 0.166864
v -0.014405 3.442409 0.151558
v 0.033488 3.467583 0.140918
v 0.043871 3.473830 0.139973
v 0.042876 3.459811 0.144385
v 0.025262 3.459046 0.142204
v 0.057683 3.475831 0.135775
v 0.040073 3.443577 0.146833
v 0.017723 3.441636 0.143292
v 0.065139 3.461482 0.136410
v 0.071056 3.471483 0.131130
v 0.081313 3.461679 0.124315
v 0.085523 3.446680 0.119850
v 0.070004 3.444536 0.136262
v 0.086759 3.427259 0.119379
v 0.039030 3.424060 0.147564
v 0.016169 3.426478 0.142140
v 0.070041 3.425833 0.136532
v 0.085305 3.404270 0.121749
v 0.039050 3.404212 0.146254
v 0.018194 3.405242 0.141473
v 0.069079 3.404289 0.136574
v 0.079790 3.392053 0.125983
v 0.040578 3.390231 0.143362
v 0.023848 3.391434 0.138843
v 0.030633 3.384447 0.138385
v 0.042731 3.379685 0.137586
v 0.065806 3.390494 0.137515
v 0.074686 3.385342 0.129159
v 0.062227 3.379588 0.134155
v -0.042876 3.459811 0.144385
v -0.057681 3.475831 0.135775
v -0.043871 3.473830 0.139973
v -0.033492 3.467583 0.140918
v -0.025262 3.459046 0.142204
v -0.065139 3.461482 0.136410
v -0.071059 3.471483 0.131130
v -0.081313 3.461679 0.124315
v -0.085526 3.446680 0.119850
v -0.040073 3.443577 0.146833
v -0.017723 3.441636 0.143292
v -0.070002 3.444536 0.136262
v -0.086762 3.427259 0.119379
v -0.039030 3.424060 0.147564
v -0.016169 3.426478 0.142140
v -0.070041 3.425833 0.136532
v -0.085303 3.404270 0.121749
v -0.039050 3.404212 0.146254
v -0.018194 3.405242 0.141473
v -0.069079 3.404289 0.136574
v -0.079794 3.392053 0.125983
v -0.040578 3.390231 0.143362
v -0.023852 3.391434 0.138843
v -0.030633 3.384447 0.138385
v -0.042731 3.379685 0.137586
v -0.065806 3.390494 0.137515
v -0.074686 3.385342 0.129159
v -0.062227 3.379588 0.134155
vn -0.9783 0.1660 -0.1237
vn -0.9864 0.1155 -0.1168
vn -0.9654 0.1765 -0.1922
vn -0.9674 0.1153 -0.2255
vn -0.9932 0.0265 -0.1137
vn -0.8719 0.2264 -0.4342
vn -0.9629 0.0613 -0.2629
vn -0.8567 0.1739 -0.4857
vn -0.8319 0.1262 -0.5403
vn -0.5406 0.3131 -0.7808
vn -0.5967 0.2298 -0.7689
vn -0.4723 0.2004 -0.8584
vn -0.0000 0.2926 -0.9562
vn -0.0000 0.3631 -0.9317
vn -0.0000 0.2272 -0.9739
vn 0.4723 0.2004 -0.8584
vn 0.5967 0.2298 -0.7689
vn 0.8319 0.1262 -0.5403
vn 0.8566 0.1740 -0.4857
vn 0.9629 0.0613 -0.2629
vn 0.5406 0.3132 -0.7808
vn 0.8719 0.2264 -0.4342
vn 0.9674 0.1155 -0.2256
vn 0.9931 0.0266 -0.1138
vn 0.9653 0.1765 -0.1923
vn 0.9864 0.1155 -0.1169
vn 0.9783 0.1660 -0.1238
vn -0.0000 1.0000 -0.0000
vn -0.9889 -0.0930 -0.1161
vn -0.9783 -0.1660 -0.1237
vn -0.9654 -0.1765 -0.1922
vn -0.9812 -0.0430 -0.1881
vn -0.9932 -0.0261 -0.1137
vn 0.9812 -0.0431 -0.1882
vn 0.8929 -0.1009 -0.4389
vn 0.9569 -0.1235 -0.2628
vn 0.9889 -0.0929 -0.1162
vn 0.9654 -0.1765 -0.1922
vn 0.9932 -0.0261 -0.1138
vn 0.9783 -0.1660 -0.1238
vn -0.0000 -1.0000 -0.0000
vn -0.8831 -0.1068 0.4569
vn -0.6339 -0.1760 0.7532
vn -0.8544 -0.1161 0.5065
vn -0.9666 -0.0572 0.2497
vn -0.9759 -0.0496 0.2126
vn -0.9897 -0.0320 0.1394
vn -0.9897 -0.0325 0.1394
vn -0.9897 -0.0313 0.1394
vn -0.9560 -0.0642 0.2861
vn 0.4837 -0.8753 -0.0020
vn -0.2544 -0.9300 0.2652
vn 0.9283 0.1584 0.3363
vn -0.0000 0.2212 0.9752
vn -0.5965 0.1769 0.7829
vn -0.0000 0.2189 0.9758
vn -0.5669 0.1804 0.8038
vn -0.8228 0.1244 0.5546
vn -0.8834 0.1036 0.4571
vn -0.9560 0.0642 0.2861
vn -0.9759 0.0482 0.2127
vn -0.9897 0.0313 0.1394
vn -0.9897 0.0317 0.1394
vn -0.9897 0.0319 0.1394
vn -0.9560 0.0655 0.2861
vn -0.8225 0.1268 0.5544
vn -0.4929 0.1939 0.8482
vn -0.0000 0.2231 0.9748
vn 0.4929 0.1939 0.8482
vn 0.5965 0.1769 0.7829
vn 0.5668 0.1804 0.8039
vn 0.8225 0.1268 0.5544
vn 0.8227 0.1244 0.5546
vn 0.8834 0.1036 0.4571
vn 0.9560 0.0655 0.2861
vn 0.9560 0.0642 0.2861
vn 0.9759 0.0482 0.2127
vn 0.9897 0.0320 0.1395
vn 0.9897 0.0313 0.1395
vn 0.9897 0.0317 0.1395
vn 0.0925 0.2236 0.9703
vn 0.0744 0.2946 0.9527
vn -0.1137 0.2870 0.9511
vn -0.1418 0.1910 0.9713
vn 0.3166 0.2410 0.9174
vn 0.0939 0.0921 0.9913
vn -0.1881 0.0429 0.9812
vn 0.4786 0.1178 0.8701
vn 0.4988 0.1551 0.8527
vn 0.5989 -0.0005 0.8008
vn 0.6807 0.0527 0.7307
vn 0.5443 0.0613 0.8367
vn 0.7183 0.0227 0.6954
vn 0.0658 -0.0171 0.9977
vn -0.2327 -0.0552 0.9710
vn 0.5331 -0.0080 0.8460
vn 0.6886 -0.0170 0.7250
vn 0.0456 -0.0994 0.9940
vn -0.2423 -0.1873 0.9520
vn 0.4888 -0.0578 0.8704
vn 0.6514 -0.0920 0.7531
vn -0.0252 -0.2851 0.9582
vn -0.2687 -0.3027 0.9144
vn -0.2052 -0.4111 0.8882
vn 0.0777 -0.4305 0.8992
vn 0.4159 -0.2400 0.8772
vn 0.5745 -0.2655 0.7743
vn 0.3366 -0.3763 0.8632
vn -0.0744 0.2946 0.9527
vn -0.3165 0.2410 0.9175
vn -0.0925 0.2236 0.9703
vn 0.1137 0.2871 0.9511
vn 0.1418 0.1910 0.9713
vn -0.4786 0.1178 0.8701
vn -0.4988 0.1550 0.8527
vn -0.5989 -0.0005 0.8008
vn -0.6806 0.0528 0.7307
vn -0.0939 0.0921 0.9913
vn 0.1881 0.0429 0.9812
vn -0.5442 0.0613 0.8367
vn -0.7182 0.0224 0.6955
vn -0.0658 -0.0171 0.9977
vn 0.2332 -0.0533 0.9710
vn -0.5331 -0.0080 0.8460
vn -0.6883 -0.0167 0.7252
vn -0.0456 -0.0994 0.9940
vn 0.2423 -0.1874 0.9519
vn -0.4889 -0.0578 0.8704
vn -0.6514 -0.0920 0.7532
vn 0.0253 -0.2851 0.9582
vn 0.2688 -0.3027 0.9144
vn 0.2052 -0.4111 0.8882
vn -0.0777 -0.4305 0.8992
vn -0.4158 -0.2401 0.8772
vn -0.5744 -0.2656 0.7743
vn -0.3366 -0.3763 0.8632
vt 0.111245 0.511714
vt 0.038478 0.422539
vt 0.038478 0.507805
vt 0.111245 0.422539
vt 0.038478 0.422539
vt 0.190453 0.512914
vt 0.111245 0.422539
vt 0.190453 0.422539
vt 0.190453 0.422539
vt 0.270350 0.513959
vt 0.270350 0.422539
vt 0.270350 0.422539
vt 0.344971 0.422539
vt 0.344971 0.422539
vt 0.270350 0.422539
vt 0.270350 0.422539
vt 0.190453 0.422539
vt 0.190453 0.422539
vt 0.111245 0.422539
vt 0.270350 0.513959
vt 0.344971 0.512902
vt 0.190453 0.512914
vt 0.111245 0.422539
vt 0.038478 0.422539
vt 0.111245 0.511714
vt 0.038478 0.422539
vt 0.038478 0.507805
vt 0.111245 0.528335
vt 0.038478 0.507805
vt 0.038478 0.529593
vt 0.111245 0.511714
vt 0.111245 0.511714
vt 0.038478 0.507805
vt 0.038478 0.422539
vt 0.111245 0.422539
vt 0.038478 0.422539
vt 0.190453 0.422539
vt 0.111245 0.422539
vt 0.111245 0.422539
vt 0.111245 0.511714
vt 0.038478 0.422539
vt 0.038478 0.422539
vt 0.038478 0.507805
vt 0.111245 0.528335
vt 0.038478 0.529593
vt 0.038478 0.507805
vt 0.111245 0.511714
vt 0.190453 0.528715
vt 0.190453 0.512914
vt 0.270350 0.529071
vt 0.270350 0.513959
vt 0.270350 0.615965
vt 0.190453 0.615965
vt 0.190453 0.615965
vt 0.111245 0.615965
vt 0.111245 0.615965
vt 0.038478 0.615965
vt 0.038478 0.615965
vt 0.038478 0.529593
vt 0.111245 0.528335
vt 0.755632 0.291200
vt 0.754539 0.301904
vt 0.754742 0.295417
vt 0.111245 0.528335
vt 0.038478 0.529593
vt 0.038478 0.507805
vt 0.111245 0.511714
vt 0.111245 0.528335
vt 0.038478 0.507805
vt 0.038478 0.529593
vt 0.111245 0.511714
vt 0.190453 0.528715
vt 0.190453 0.512914
vt 0.270350 0.529071
vt 0.270350 0.513959
vt 0.344971 0.512902
vt 0.344971 0.530580
vt 0.344971 0.530580
vt 0.270350 0.615965
vt 0.270350 0.529071
vt 0.190453 0.528715
vt 0.190453 0.615965
vt 0.111245 0.528335
vt 0.111245 0.615965
vt 0.038478 0.529593
vt 0.038478 0.615965
vt 0.038478 0.615965
vt 0.111245 0.615965
vt 0.190453 0.615965
vt 0.270350 0.615965
vt 0.344971 0.615965
vt 0.344971 0.615965
vt 0.270350 0.615965
vt 0.270350 0.615965
vt 0.270350 0.529071
vt 0.190453 0.615965
vt 0.190453 0.528715
vt 0.190453 0.615965
vt 0.111245 0.615965
vt 0.111245 0.528335
vt 0.111245 0.615965
vt 0.038478 0.615965
vt 0.038478 0.529593
vt 0.038478 0.615965
vt 0.265193 1.162493
vt 0.394952 1.256598
vt 0.382513 1.045386
vt 0.162332 1.033827
vt 0.567564 1.286762
vt 0.347478 0.800790
vt 0.068119 0.771541
vt 0.660778 1.070560
vt 0.734747 1.221217
vt 0.862926 1.073543
vt 0.915580 0.847564
vt 0.721571 0.815213
vt 0.931025 0.554947
vt 0.334456 0.506724
vt 0.048695 0.543161
vt 0.722058 0.533407
vt 0.912811 0.208547
vt 0.334694 0.207667
vt 0.074000 0.223184
vt 0.710023 0.208832
vt 0.843928 0.024435
vt 0.353786 -0.002962
vt 0.144701 0.015121
vt 0.229505 -0.090129
vt 0.380708 -0.161911
vt 0.669130 0.000971
vt 0.780118 -0.076669
vt 0.624389 -0.163348
vt 0.597218 1.045386
vt 0.412167 1.286762
vt 0.584779 1.256598
vt 0.714538 1.162493
vt 0.817388 1.033827
vt 0.318953 1.070560
vt 0.244985 1.221217
vt 0.116806 1.073543
vt 0.064152 0.847564
vt 0.632254 0.800790
vt 0.911600 0.771541
vt 0.258148 0.815213
vt 0.048695 0.554947
vt 0.645274 0.506724
vt 0.931036 0.543161
vt 0.257661 0.533407
vt 0.066919 0.208547
vt 0.645037 0.207667
vt 0.905731 0.223184
vt 0.269696 0.208832
vt 0.135802 0.024435
vt 0.625933 -0.002962
vt 0.835030 0.015121
vt 0.750227 -0.090129
vt 0.599024 -0.161911
vt 0.310600 0.000971
vt 0.199613 -0.076669
vt 0.355343 -0.163348
s 1
usemtl basketballer_head.002
f 42/3/1 41/2/2 40/1/3
f 41/2/2 43/4/4 40/1/3
f 41/2/2 44/5/5 43/4/4
f 40/1/3 43/4/4 45/6/6
f 44/5/5 46/7/7 43/4/4
f 43/4/4 47/8/8 45/6/6
f 43/4/4 46/7/7 47/8/8
f 46/7/7 48/9/9 47/8/8
f 45/6/6 47/8/8 49/10/10
f 47/8/8 48/9/9 50/11/11
f 47/8/8 50/11/11 49/10/10
f 48/9/9 51/12/12 50/11/11
f 49/10/10 50/11/11 52/13/13
f 50/11/11 51/12/12 52/13/13
f 60/21/14 49/10/10 52/13/13
f 51/12/12 53/14/15 52/13/13
f 53/14/15 54/15/16 52/13/13
f 54/15/16 55/16/17 52/13/13
f 54/15/16 56/17/18 55/16/17
f 56/17/18 57/18/19 55/16/17
f 56/17/18 58/19/20 57/18/19
f 55/16/17 57/18/19 59/20/21
f 55/16/17 59/20/21 52/13/13
f 59/20/21 60/21/14 52/13/13
f 57/18/19 61/22/22 59/20/21
f 58/19/20 62/23/23 57/18/19
f 57/18/19 62/23/23 61/22/22
f 58/19/20 63/24/24 62/23/23
f 62/23/23 64/25/25 61/22/22
f 63/24/24 65/26/26 62/23/23
f 62/23/23 65/26/26 64/25/25
f 65/26/26 66/27/27 64/25/25
f 69/30/28 68/29/28 67/28/28
f 68/29/28 70/31/28 67/28/28
f 74/34/29 73/33/30 72/32/31
f 75/35/32 76/36/33 74/34/29
f 83/39/34 81/37/35 82/38/36
f 83/39/34 82/38/36 85/41/37
f 85/41/37 82/38/36 84/40/38
f 86/42/39 83/39/34 85/41/37
f 87/43/40 85/41/37 84/40/38
f 90/46/41 89/45/41 88/44/41
f 91/47/41 90/46/41 88/44/41
f 91/47/41 88/44/41 92/48/41
f 93/49/41 91/47/41 92/48/41
f 93/49/41 92/48/41 94/50/41
f 95/51/41 93/49/41 94/50/41
f 95/51/41 94/50/41 172/76/41
f 94/50/41 173/77/41 172/76/41
f 108/54/42 106/52/43 107/53/44
f 108/54/42 107/53/44 109/55/45
f 110/56/46 108/54/42 109/55/45
f 110/56/46 109/55/45 111/57/47
f 112/58/48 110/56/46 111/57/47
f 113/59/49 111/57/47 109/55/45
f 114/60/50 113/59/49 109/55/45
f 114/60/50 109/55/45 107/53/44
f 153/63/51 116/62/52 115/61/53
f 159/66/28 158/65/28 157/64/28
f 160/67/28 159/66/28 157/64/28
f 166/70/41 165/69/41 164/68/41
f 165/69/41 167/71/41 164/68/41
f 164/68/41 167/71/41 168/72/41
f 167/71/41 169/73/41 168/72/41
f 168/72/41 169/73/41 170/74/41
f 169/73/41 171/75/41 170/74/41
f 170/74/41 171/75/41 172/76/41
f 173/77/41 170/74/41 172/76/41
f 187/91/54 175/79/55 174/78/56
f 175/79/55 176/80/57 174/78/56
f 177/81/58 176/80/57 175/79/55
f 178/82/59 177/81/58 175/79/55
f 179/83/60 177/81/58 178/82/59
f 180/84/61 179/83/60 178/82/59
f 181/85/62 179/83/60 180/84/61
f 182/86/63 181/85/62 180/84/61
f 183/87/64 182/86/63 180/84/61
f 184/88/65 183/87/64 180/84/61
f 184/88/65 180/84/61 178/82/59
f 185/89/66 184/88/65 178/82/59
f 185/89/66 178/82/59 175/79/55
f 186/90/67 185/89/66 175/79/55
f 186/90/67 175/79/55 187/91/54
f 188/92/68 186/90/67 187/91/54
f 189/93/69 188/92/68 187/91/54
f 190/94/70 189/93/69 187/91/54
f 190/94/70 187/91/54 174/78/56
f 191/95/71 190/94/70 174/78/56
f 192/96/72 189/93/69 190/94/70
f 191/95/71 193/97/73 190/94/70
f 194/98/74 192/96/72 190/94/70
f 193/97/73 194/98/74 190/94/70
f 195/99/75 192/96/72 194/98/74
f 193/97/73 196/100/76 194/98/74
f 197/101/77 195/99/75 194/98/74
f 196/100/76 197/101/77 194/98/74
f 198/102/78 195/99/75 197/101/77
f 196/100/76 199/103/79 197/101/77
f 200/104/80 198/102/78 197/101/77
f 199/103/79 200/104/80 197/101/77
usemtl basketballer_eye.002
f 211/107/81 210/106/82 209/105/83
f 212/108/84 211/107/81 209/105/83
f 213/109/85 210/106/82 211/107/81
f 214/110/86 211/107/81 212/108/84
f 215/111/87 214/110/86 212/108/84
f 216/112/88 213/109/85 211/107/81
f 216/112/88 211/107/81 214/110/86
f 213/109/85 216/112/88 217/113/89
f 216/112/88 218/114/90 217/113/89
f 219/115/91 218/114/90 216/112/88
f 220/116/92 219/115/91 216/112/88
f 220/116/92 216/112/88 214/110/86
f 221/117/93 219/115/91 220/116/92
f 214/110/86 215/111/87 222/118/94
f 220/116/92 214/110/86 222/118/94
f 215/111/87 223/119/95 222/118/94
f 224/120/96 221/117/93 220/116/92
f 224/120/96 220/116/92 222/118/94
f 221/117/93 224/120/96 225/121/97
f 226/122/98 222/118/94 223/119/95
f 222/118/94 226/122/98 224/120/96
f 227/123/99 226/122/98 223/119/95
f 224/120/96 228/124/100 225/121/97
f 226/122/98 228/124/100 224/120/96
f 225/121/97 228/124/100 229/125/101
f 226/122/98 227/123/99 230/126/102
f 226/122/98 230/126/102 228/124/100
f 227/123/99 231/127/103 230/126/102
f 230/126/102 231/127/103 232/128/104
f 233/129/105 230/126/102 232/128/104
f 228/124/100 234/130/106 229/125/101
f 230/126/102 234/130/106 228/124/100
f 230/126/102 233/129/105 234/130/106
f 229/125/101 234/130/106 235/131/107
f 233/129/105 236/132/108 234/130/106
f 234/130/106 236/132/108 235/131/107
f 239/135/109 238/134/110 237/133/111
f 239/135/109 237/133/111 240/136/112
f 237/133/111 241/137/113 240/136/112
f 238/134/110 242/138/114 237/133/111
f 242/138/114 238/134/110 243/139/115
f 244/140/116 242/138/114 243/139/115
f 244/140/116 245/141/117 242/138/114
f 237/133/111 246/142/118 241/137/113
f 237/133/111 242/138/114 246/142/118
f 246/142/118 247/143/119 241/137/113
f 245/141/117 248/144/120 242/138/114
f 242/138/114 248/144/120 246/142/118
f 245/141/117 249/145/121 248/144/120
f 247/143/119 246/142/118 250/146/122
f 246/142/118 248/144/120 250/146/122
f 251/147/123 247/143/119 250/146/122
f 249/145/121 252/148/124 248/144/120
f 248/144/120 252/148/124 250/146/122
f 252/148/124 249/145/121 253/149/125
f 250/146/122 254/150/126 251/147/123
f 254/150/126 250/146/122 252/148/124
f 254/150/126 255/151/127 251/147/123
f 256/152/128 252/148/124 253/149/125
f 256/152/128 254/150/126 252/148/124
f 256/152/128 253/149/125 257/153/129
f 255/151/127 254/150/126 258/154/130
f 258/154/130 254/150/126 256/152/128
f 259/155/131 255/151/127 258/154/130
f 259/155/131 258/154/130 260/156/132
f 258/154/130 261/157/133 260/156/132
f 262/158/134 256/152/128 257/153/129
f 262/158/134 258/154/130 256/152/128
f 261/157/133 258/154/130 262/158/134
f 262/158/134 257/153/129 263/159/135
f 264/160/136 261/157/133 262/158/134
f 264/160/136 262/158/134 263/159/135
l 4 5
l 21 22
l 78 79
l 149 150
l 154 155
l 127 128
l 29 30
l 27 33
l 147 148
l 23 24
l 128 129
l 135 136
l 137 138
l 142 143
l 29 146
l 104 105
l 14 19
l 143 144
l 5 6
l 7 8
l 18 19
l 24 25
l 30 31
l 129 130
l 2 3
l 205 206
l 119 120
l 120 121
l 130 131
l 96 97
l 79 80
l 15 16
l 117 153
l 75 77
l 131 132
l 138 139
l 203 207
l 161 162
l 161 163
l 9 10
l 9 12
l 121 122
l 123 124
l 125 126
l 132 133
l 80 81
l 102 103
l 118 119
l 133 134
l 139 140
l 10 11
l 35 36
l 77 78
l 126 127
l 134 135
l 105 106
l 1 36
l 3 4
l 11 13
