# Blender 3.5.0
# www.blender.org
mtllib backboard.mtl
o board1
v -22.841572 4.590911 -1.150338
v -22.841572 6.034513 -1.150339
v -22.699579 4.590911 -1.150338
v -22.699579 6.034513 -1.150339
v -22.841570 4.590911 1.465032
v -22.841570 6.034513 1.465032
v -22.699579 4.590911 1.465031
v -22.699579 6.034513 1.465031
vn -0.0000 -0.0000 -1.0000
vn 1.0000 -0.0000 -0.0000
vn -0.0000 -0.0000 1.0000
vn -1.0000 -0.0000 -0.0000
vn -0.0000 -1.0000 -0.0000
vn -0.0000 1.0000 -0.0000
vt 0.375000 0.000000
vt 0.375000 1.000000
vt 0.125000 0.750000
vt 0.625000 0.000000
vt 0.625000 1.000000
vt 0.875000 0.750000
vt 0.125000 0.500000
vt 0.375000 0.250000
vt 0.625000 0.250000
vt 0.875000 0.500000
vt 0.375000 0.750000
vt 0.625000 0.750000
vt 0.375000 0.500000
vt 0.625000 0.500000
s 0
usemtl Material.003
f 2/4/1 3/8/1 1/1/1
f 4/9/2 7/13/2 3/8/2
f 8/14/3 5/11/3 7/13/3
f 6/12/4 1/2/4 5/11/4
f 7/13/5 1/3/5 3/7/5
f 8/14/6 2/6/6 6/12/6
f 2/4/1 4/9/1 3/8/1
f 4/9/2 8/14/2 7/13/2
f 8/14/3 6/12/3 5/11/3
f 6/12/4 2/5/4 1/2/4
f 7/13/5 5/11/5 1/3/5
f 8/14/6 4/10/6 2/6/6
o board2
v 22.992393 4.590911 1.307685
v 22.992393 6.034513 1.307685
v 22.850403 4.590911 1.307685
v 22.850403 6.034513 1.307685
v 22.992393 4.590911 -1.307685
v 22.992393 6.034513 -1.307685
v 22.850403 4.590911 -1.307685
v 22.850403 6.034513 -1.307685
vn -0.0000 -0.0000 1.0000
vn -1.0000 -0.0000 -0.0000
vn -0.0000 -0.0000 -1.0000
vn 1.0000 -0.0000 -0.0000
vn -0.0000 -1.0000 -0.0000
vn -0.0000 1.0000 -0.0000
vt 0.375000 0.000000
vt 0.375000 1.000000
vt 0.125000 0.750000
vt 0.625000 0.000000
vt 0.625000 1.000000
vt 0.875000 0.750000
vt 0.125000 0.500000
vt 0.375000 0.250000
vt 0.625000 0.250000
vt 0.875000 0.500000
vt 0.375000 0.750000
vt 0.625000 0.750000
vt 0.375000 0.500000
vt 0.625000 0.500000
s 0
usemtl Material.003
f 10/18/7 11/22/7 9/15/7
f 12/23/8 15/27/8 11/22/8
f 16/28/9 13/25/9 15/27/9
f 14/26/10 9/16/10 13/25/10
f 15/27/11 9/17/11 11/21/11
f 12/24/12 14/26/12 16/28/12
f 10/18/7 12/23/7 11/22/7
f 12/23/8 16/28/8 15/27/8
f 16/28/9 14/26/9 13/25/9
f 14/26/10 10/19/10 9/16/10
f 15/27/11 13/25/11 9/17/11
f 12/24/12 10/20/12 14/26/12
o Plane.027
v 22.832836 5.916153 1.209168
v 22.833832 5.776157 1.209077
v 22.834145 5.917728 -1.190831
v 22.835140 5.777731 -1.190922
vn -1.0000 -0.0071 -0.0005
vt 0.000000 0.000000
vt 1.000000 0.000000
vt 0.000000 1.000000
vt 1.000000 1.000000
s 0
usemtl Material.056
f 18/30/13 17/29/13 19/31/13
f 18/30/13 19/31/13 20/32/13
o Plane.026
v 22.832253 4.776248 1.211918
v 22.833248 4.636251 1.211827
v 22.833561 4.777822 -1.188081
v 22.834557 4.637825 -1.188173
vn -1.0000 -0.0071 -0.0005
vt 0.000000 0.000000
vt 1.000000 0.000000
vt 0.000000 1.000000
vt 1.000000 1.000000
s 0
usemtl Material.055
f 22/34/14 21/33/14 23/35/14
f 22/34/14 23/35/14 24/36/14
o Plane.025
v 22.829098 5.884635 -1.047596
v 22.837635 4.684666 -1.048378
v 22.829174 5.884727 -1.187595
v 22.837711 4.684758 -1.188378
vn -1.0000 -0.0071 -0.0005
vt 0.000000 0.000000
vt 1.000000 0.000000
vt 0.000000 1.000000
vt 1.000000 1.000000
s 0
usemtl Material.054
f 26/38/15 25/37/15 27/39/15
f 26/38/15 27/39/15 28/40/15
o Plane.024
v 22.829098 5.884635 1.206942
v 22.837635 4.684666 1.206159
v 22.829174 5.884727 1.066942
v 22.837711 4.684758 1.066159
vn -1.0000 -0.0071 -0.0005
vt 0.000000 0.000000
vt 1.000000 0.000000
vt 0.000000 1.000000
vt 1.000000 1.000000
s 0
usemtl Material.053
f 30/42/16 29/41/16 31/43/16
f 30/42/16 31/43/16 32/44/16
o Plane.023
v 22.832804 4.975732 0.461905
v 22.833515 4.875734 0.461840
v 22.833294 4.976322 -0.438095
v 22.834005 4.876325 -0.438160
vn -1.0000 -0.0071 -0.0005
vt 0.000000 0.000000
vt 1.000000 0.000000
vt 0.000000 1.000000
vt 1.000000 1.000000
s 0
usemtl Material.052
f 34/46/17 33/45/17 35/47/17
f 34/46/17 35/47/17 36/48/17
o Plane.022
v 22.833387 5.471716 0.459155
v 22.834099 5.371719 0.459090
v 22.833878 5.472307 -0.440844
v 22.834589 5.372309 -0.440910
vn -1.0000 -0.0071 -0.0005
vt 0.000000 0.000000
vt 1.000000 0.000000
vt 0.000000 1.000000
vt 1.000000 1.000000
s 0
usemtl Material.051
f 38/50/18 37/49/18 39/51/18
f 38/50/18 39/51/18 40/52/18
o Plane.021
v 22.831598 5.439344 0.458111
v 22.835155 4.939357 0.457785
v 22.831654 5.439410 0.358111
v 22.835211 4.939423 0.357785
vn -1.0000 -0.0071 -0.0005
vt 0.000000 0.000000
vt 1.000000 0.000000
vt 0.000000 1.000000
vt 1.000000 1.000000
s 0
usemtl Material.050
f 42/54/19 41/53/19 43/55/19
f 42/54/19 43/55/19 44/56/19
o Plane.020
v 22.832825 5.435380 -0.334400
v 22.836382 4.935393 -0.334726
v 22.832880 5.435446 -0.434400
v 22.836437 4.935459 -0.434726
vn -1.0000 -0.0071 -0.0005
vt 0.000000 0.000000
vt 1.000000 0.000000
vt 0.000000 1.000000
vt 1.000000 1.000000
s 0
usemtl Material.049
f 46/58/20 45/57/20 47/59/20
f 46/58/20 47/59/20 48/60/20
o Plane.006
v -22.688381 5.916153 1.355620
v -22.687386 5.776157 1.355529
v -22.687073 5.917728 -1.044379
v -22.686077 5.777731 -1.044470
vn -1.0000 -0.0071 -0.0005
vt 0.000000 0.000000
vt 1.000000 0.000000
vt 0.000000 1.000000
vt 1.000000 1.000000
s 0
usemtl Material.007
f 50/62/21 49/61/21 51/63/21
f 50/62/21 51/63/21 52/64/21
o Plane.007
v -22.688963 4.776248 1.358370
v -22.687967 4.636251 1.358279
v -22.687654 4.777822 -1.041629
v -22.686659 4.637825 -1.041720
vn -1.0000 -0.0071 -0.0005
vt 0.000000 0.000000
vt 1.000000 0.000000
vt 0.000000 1.000000
vt 1.000000 1.000000
s 0
usemtl Material.014
f 54/66/22 53/65/22 55/67/22
f 54/66/22 55/67/22 56/68/22
o Plane.014
v -22.692118 5.884635 -0.901143
v -22.683580 4.684666 -0.901926
v -22.692041 5.884727 -1.041143
v -22.683504 4.684758 -1.041926
vn -1.0000 -0.0071 -0.0005
vt 0.000000 0.000000
vt 1.000000 0.000000
vt 0.000000 1.000000
vt 1.000000 1.000000
s 0
usemtl Material.015
f 58/70/23 57/69/23 59/71/23
f 58/70/23 59/71/23 60/72/23
o Plane.015
v -22.692118 5.884635 1.353394
v -22.683580 4.684666 1.352611
v -22.692041 5.884727 1.213394
v -22.683504 4.684758 1.212612
vn -1.0000 -0.0071 -0.0005
vt 0.000000 0.000000
vt 1.000000 0.000000
vt 0.000000 1.000000
vt 1.000000 1.000000
s 0
usemtl Material.036
f 62/74/24 61/73/24 63/75/24
f 62/74/24 63/75/24 64/76/24
o Plane.016
v -22.688412 4.975732 0.608357
v -22.687700 4.875734 0.608292
v -22.687922 4.976322 -0.291642
v -22.687210 4.876325 -0.291708
vn -1.0000 -0.0071 -0.0005
vt 0.000000 0.000000
vt 1.000000 0.000000
vt 0.000000 1.000000
vt 1.000000 1.000000
s 0
usemtl Material.037
f 66/78/25 65/77/25 67/79/25
f 66/78/25 67/79/25 68/80/25
o Plane.017
v -22.687830 5.471716 0.605607
v -22.687119 5.371719 0.605542
v -22.687340 5.472307 -0.294392
v -22.686628 5.372309 -0.294457
vn -1.0000 -0.0071 -0.0005
vt 0.000000 0.000000
vt 1.000000 0.000000
vt 0.000000 1.000000
vt 1.000000 1.000000
s 0
usemtl Material.038
f 70/82/26 69/81/26 71/83/26
f 70/82/26 71/83/26 72/84/26
o Plane.018
v -22.689617 5.439344 0.604564
v -22.686060 4.939357 0.604237
v -22.689562 5.439410 0.504564
v -22.686005 4.939423 0.504237
vn -1.0000 -0.0071 -0.0005
vt 0.000000 0.000000
vt 1.000000 0.000000
vt 0.000000 1.000000
vt 1.000000 1.000000
s 0
usemtl Material.039
f 74/86/27 73/85/27 75/87/27
f 74/86/27 75/87/27 76/88/27
o Plane.019
v -22.692991 5.435380 -0.187948
v -22.689434 4.935393 -0.188274
v -22.692936 5.435446 -0.287948
v -22.689379 4.935459 -0.288274
vn -1.0000 -0.0071 -0.0005
vt 0.000000 0.000000
vt 1.000000 0.000000
vt 0.000000 1.000000
vt 1.000000 1.000000
s 0
usemtl Material.048
f 78/90/28 77/89/28 79/91/28
f 78/90/28 79/91/28 80/92/28
