# Blender 3.5.0
# www.blender.org
mtllib stripe ball.mtl
o BasketballBall.002
v 0.265221 1.119737 0.360568
v -0.014183 1.394944 0.250999
v 0.007525 1.190577 0.455367
v -0.145683 1.394944 0.119484
v 0.007516 1.417019 0.179753
v 0.067767 1.416360 0.119488
v 0.138185 1.392983 0.119478
v 0.203127 1.358274 0.119478
v 0.203127 1.358274 0.097818
v 0.260027 1.311577 0.119478
v 0.260027 1.311577 0.097818
v 0.306724 1.254677 0.119478
v 0.306724 1.254677 0.097818
v 0.341424 1.189759 0.119478
v 0.341424 1.189759 0.097818
v 0.362791 1.119321 0.119478
v 0.034998 1.416960 0.162039
v 0.024815 1.414163 0.181473
v 0.088871 1.392970 0.216544
v 0.104929 1.392983 0.200259
v 0.134754 1.358274 0.262459
v 0.150838 1.358274 0.246195
v 0.174987 1.311578 0.302694
v 0.191070 1.311577 0.286430
v 0.208006 1.254677 0.335715
v 0.224090 1.254677 0.319451
v 0.232541 1.189761 0.360252
v 0.248624 1.189759 0.343987
v 0.247650 1.119321 0.375361
v 0.263732 1.119321 0.359096
v 0.007512 1.408297 0.206994
v -0.014169 1.408297 0.206994
v -0.014183 1.392992 0.250137
v 0.007525 1.392992 0.250137
v -0.014183 1.358274 0.315099
v 0.007525 1.358274 0.315099
v -0.014183 1.311577 0.372000
v 0.007525 1.311577 0.372000
v -0.014183 1.254677 0.418697
v 0.007525 1.254677 0.418697
v -0.014183 1.189759 0.453396
v 0.007525 1.189759 0.453396
v -0.014183 1.119321 0.474763
v 0.007525 1.119321 0.474763
v -0.031508 1.414314 0.180891
v -0.043054 1.416946 0.160823
v -0.112559 1.392982 0.198803
v -0.096022 1.392971 0.216214
v -0.158462 1.358273 0.244743
v -0.141900 1.358275 0.262136
v -0.198690 1.311576 0.284983
v -0.182129 1.311579 0.302377
v -0.231705 1.254676 0.318008
v -0.215144 1.254679 0.335401
v -0.256237 1.189758 0.342546
v -0.239677 1.189762 0.359940
v -0.271344 1.119321 0.357657
v -0.254784 1.119322 0.375053
v -0.074424 1.416360 0.119493
v -0.144842 1.392983 0.097813
v -0.209784 1.358274 0.097813
v -0.209784 1.358274 0.119484
v -0.348079 1.189759 0.119484
v -0.369447 1.119321 0.097812
v -0.369447 1.119321 0.119484
v -0.014092 1.420817 0.097802
v -0.014092 1.420817 0.119494
v 0.007434 1.420817 0.119488
v 0.007434 1.420817 0.097808
v -0.014150 1.420829 0.131579
v 0.007491 1.420829 0.131579
v -0.014151 1.418620 0.157324
v -0.014149 1.415058 0.178756
v 0.007494 1.414924 0.179353
v 0.007495 1.418471 0.158709
v 0.025047 1.416244 0.035415
v -0.031740 1.416398 0.036010
v -0.014144 1.422951 0.097803
v -0.014174 1.417155 0.038147
v 0.007516 1.417019 0.037543
v 0.067767 1.416360 0.097808
v 0.138185 1.392983 0.097818
v 0.362791 1.119321 0.097818
v 0.034998 1.416960 0.055257
v 0.024815 1.414163 0.035824
v 0.088871 1.392970 0.000753
v 0.104929 1.392983 0.017037
v 0.134754 1.358274 -0.045162
v 0.150838 1.358273 -0.028898
v 0.174987 1.311578 -0.085397
v 0.191070 1.311577 -0.069134
v 0.208006 1.254677 -0.118419
v 0.224090 1.254677 -0.102154
v 0.232541 1.189761 -0.142955
v 0.248624 1.189759 -0.126690
v 0.247650 1.119321 -0.158065
v 0.263732 1.119321 -0.141800
v 0.007512 1.408297 0.010303
v -0.014169 1.408297 0.010303
v -0.014183 1.392992 -0.032841
v 0.007525 1.392992 -0.032841
v -0.014183 1.358274 -0.097803
v 0.007525 1.358274 -0.097803
v -0.014183 1.311577 -0.154704
v 0.007525 1.311577 -0.154704
v -0.014183 1.254677 -0.201400
v 0.007525 1.254677 -0.201400
v -0.014183 1.189759 -0.236099
v 0.007525 1.189759 -0.236099
v -0.014183 1.119321 -0.257466
v 0.007525 1.119321 -0.257466
v -0.031508 1.414314 0.036406
v -0.043054 1.416946 0.056473
v -0.112559 1.392982 0.018494
v -0.096022 1.392971 0.001082
v -0.158462 1.358272 -0.027447
v -0.141900 1.358275 -0.044840
v -0.198690 1.311576 -0.067687
v -0.182129 1.311579 -0.085080
v -0.231705 1.254676 -0.100711
v -0.215144 1.254679 -0.118104
v -0.256237 1.189758 -0.125250
v -0.239677 1.189762 -0.142644
v -0.271344 1.119321 -0.140361
v -0.254784 1.119322 -0.157756
v -0.074424 1.416360 0.097803
v -0.144842 1.392983 0.119483
v -0.266684 1.311577 0.119483
v -0.266684 1.311577 0.097812
v -0.313381 1.254677 0.119484
v -0.313381 1.254677 0.097813
v -0.348079 1.189759 0.097812
v -0.014150 1.420829 0.085717
v 0.007491 1.420829 0.085717
v -0.014151 1.418620 0.059973
v -0.014149 1.415058 0.038541
v 0.007494 1.414924 0.037944
v 0.007495 1.418471 0.058588
v 0.204313 0.732085 0.097818
v 0.067767 0.675773 0.119488
v 0.203127 0.733859 0.119478
v 0.203127 0.733859 0.097818
v 0.260027 0.780556 0.097818
v 0.306724 0.837457 0.097818
v 0.341424 0.902374 0.119478
v 0.341424 0.902374 0.097818
v 0.362791 0.972813 0.119478
v 0.362791 0.972813 0.097818
v 0.370006 1.046067 0.119478
v 0.370006 1.046067 0.097818
v 0.034998 0.675173 0.162039
v 0.024815 0.677970 0.181473
v 0.088871 0.699163 0.216544
v 0.104929 0.699150 0.200259
v 0.134754 0.733859 0.262459
v 0.150838 0.733860 0.246195
v 0.174987 0.780555 0.302694
v 0.191070 0.780556 0.286430
v 0.208006 0.837457 0.335715
v 0.224090 0.837457 0.319451
v 0.232541 0.902372 0.360252
v 0.248624 0.902374 0.343987
v 0.247650 0.972813 0.375361
v 0.263732 0.972813 0.359096
v 0.252751 1.046067 0.380463
v 0.268835 1.046067 0.364198
v 0.007512 0.683836 0.206994
v -0.014169 0.683836 0.206994
v -0.014183 0.699141 0.250137
v 0.007525 0.699141 0.250137
v -0.014183 0.733859 0.315100
v 0.007525 0.733859 0.315100
v -0.014183 0.780556 0.372000
v 0.007525 0.780556 0.372000
v -0.014183 0.837457 0.418697
v 0.007525 0.837457 0.418697
v -0.014183 0.902374 0.453396
v 0.007525 0.902374 0.453396
v -0.014183 0.972813 0.474763
v 0.007525 0.972813 0.474763
v -0.014183 1.046067 0.481978
v 0.007525 1.046067 0.481978
v -0.031508 0.677819 0.180891
v -0.043054 0.675187 0.160824
v -0.112559 0.699151 0.198803
v -0.096022 0.699162 0.216214
v -0.158462 0.733861 0.244743
v -0.141900 0.733858 0.262136
v -0.198690 0.780557 0.284983
v -0.182129 0.780554 0.302377
v -0.231705 0.837458 0.318008
v -0.215144 0.837454 0.335401
v -0.256237 0.902375 0.342546
v -0.239677 0.902371 0.359940
v -0.271344 0.972813 0.357657
v -0.254784 0.972812 0.375053
v -0.276445 1.046067 0.362759
v -0.259885 1.046067 0.380155
v -0.074424 0.675773 0.119494
v -0.209784 0.733859 0.097813
v -0.209784 0.733859 0.119484
v -0.266684 0.780556 0.097813
v -0.369447 0.972813 0.097812
v -0.369447 0.972813 0.119484
v -0.014092 0.671316 0.097802
v -0.014092 0.671316 0.119494
v 0.007434 0.671316 0.119488
v -0.014150 0.671304 0.131579
v 0.007491 0.671304 0.131579
v -0.014151 0.673513 0.157324
v -0.014149 0.677075 0.178756
v 0.007494 0.677209 0.179353
v 0.007495 0.673662 0.158709
v 0.209268 0.836271 -0.119666
v 0.007525 0.901556 -0.238070
v -0.232990 0.836271 -0.101934
v -0.268193 0.779047 0.119483
v 0.067767 0.675773 0.097808
v 0.138185 0.699150 0.097818
v 0.138185 0.699150 0.119478
v 0.260027 0.780556 0.119478
v 0.306724 0.837457 0.119478
v 0.034998 0.675173 0.055257
v 0.024815 0.677970 0.035824
v 0.088871 0.699163 0.000753
v 0.104929 0.699150 0.017037
v 0.134754 0.733859 -0.045162
v 0.150838 0.733860 -0.028898
v 0.174987 0.780555 -0.085397
v 0.191070 0.780556 -0.069134
v 0.208006 0.837457 -0.118419
v 0.224090 0.837457 -0.102154
v 0.232541 0.902372 -0.142955
v 0.248624 0.902374 -0.126690
v 0.247650 0.972812 -0.158065
v 0.263732 0.972812 -0.141800
v 0.252751 1.046067 -0.163167
v 0.268835 1.046067 -0.146902
v 0.007512 0.683836 0.010303
v -0.014169 0.683836 0.010303
v -0.014183 0.699141 -0.032840
v 0.007525 0.699141 -0.032840
v -0.014183 0.733859 -0.097803
v 0.007525 0.733859 -0.097803
v -0.014183 0.780556 -0.154704
v 0.007525 0.780556 -0.154704
v -0.014183 0.837457 -0.201400
v 0.007525 0.837457 -0.201400
v -0.014183 0.902374 -0.236099
v 0.007525 0.902374 -0.236099
v -0.014183 0.972812 -0.257466
v 0.007525 0.972812 -0.257466
v -0.014183 1.046067 -0.264682
v 0.007525 1.046067 -0.264682
v -0.031508 0.677819 0.036406
v -0.043054 0.675187 0.056473
v -0.112559 0.699151 0.018494
v -0.096022 0.699162 0.001082
v -0.158462 0.733861 -0.027447
v -0.141900 0.733858 -0.044840
v -0.198690 0.780557 -0.067687
v -0.182129 0.780554 -0.085080
v -0.231705 0.837458 -0.100711
v -0.215144 0.837454 -0.118104
v -0.256237 0.902375 -0.125250
v -0.239677 0.902371 -0.142644
v -0.271344 0.972812 -0.140361
v -0.254784 0.972812 -0.157756
v -0.276445 1.046067 -0.145463
v -0.259885 1.046067 -0.162858
v -0.074424 0.675773 0.097803
v -0.144842 0.699150 0.119483
v -0.144842 0.699150 0.097812
v -0.266684 0.780556 0.119483
v -0.313381 0.837457 0.119484
v -0.313381 0.837457 0.097813
v -0.348079 0.902374 0.119484
v -0.348079 0.902374 0.097812
v -0.376663 1.046067 0.119484
v -0.376663 1.046067 0.097812
v 0.007434 0.671316 0.097808
v -0.014150 0.671304 0.085717
v 0.007491 0.671304 0.085717
v -0.014151 0.673513 0.059973
v -0.014149 0.677075 0.038541
v 0.007494 0.677209 0.037944
v 0.007495 0.673662 0.058588
vn -1.0000 -0.0000 -0.0000
vn 0.1274 0.1849 -0.9745
vn 1.0000 -0.0000 -0.0000
vn -0.0000 -0.0000 1.0000
vn -0.0000 -0.0004 1.0000
vn -0.7035 0.0016 0.7107
vn -0.0000 0.0005 -1.0000
vn -0.1262 0.1714 0.9771
vn 0.1263 0.1776 0.9760
vn -0.9999 0.0099 0.0030
vn -0.0002 0.0004 -1.0000
vn -0.9999 0.0099 -0.0030
vn 0.9999 0.0112 -0.0034
vn -0.1277 0.1816 0.9750
vn 0.1274 0.1850 0.9744
vn 0.9997 0.0244 -0.0048
vn 0.6957 -0.0132 -0.7182
vn 0.6958 -0.0134 -0.7181
vn -0.0000 1.0000 -0.0000
vn -0.0037 0.9865 0.1639
vn 0.3151 0.9491 -0.0000
vn 0.4714 0.8819 -0.0000
vn 0.6344 0.7730 -0.0000
vn 0.7730 0.6344 -0.0000
vn 0.8819 0.4714 -0.0000
vn 0.9569 0.2903 -0.0000
vn 0.9952 0.0980 -0.0000
vn 0.1868 0.9538 0.2352
vn 0.3353 0.8819 0.3313
vn 0.4511 0.7730 0.4461
vn 0.5497 0.6344 0.5435
vn 0.6271 0.4714 0.6201
vn 0.6805 0.2903 0.6728
vn 0.7077 0.0980 0.6997
vn -0.0000 0.9425 0.3343
vn -0.0000 0.8820 0.4713
vn -0.0000 0.7730 0.6344
vn -0.0000 0.6344 0.7730
vn -0.0000 0.4714 0.8819
vn -0.0000 0.2903 0.9569
vn -0.0000 0.0980 0.9952
vn -0.1879 0.9541 0.2332
vn -0.3416 0.8819 0.3250
vn -0.4596 0.7729 0.4375
vn -0.5600 0.6343 0.5330
vn -0.6388 0.4713 0.6081
vn -0.6931 0.2902 0.6598
vn -0.7208 0.0980 0.6862
vn -0.3151 0.9491 -0.0000
vn -0.4714 0.8819 -0.0000
vn -0.6344 0.7730 -0.0000
vn -0.8819 0.4714 -0.0000
vn -0.9569 0.2903 -0.0000
vn -0.9952 0.0980 -0.0000
vn 0.0737 0.9973 -0.0000
vn -0.0737 0.9973 -0.0000
vn -0.0000 1.0000 -0.0010
vn -0.0000 0.9963 0.0855
vn 0.0226 0.9853 0.1693
vn -0.0388 0.9876 0.1519
vn -0.0004 0.9725 0.2329
vn -0.0037 0.9865 -0.1639
vn 0.1868 0.9538 -0.2352
vn 0.3352 0.8819 -0.3314
vn 0.4511 0.7730 -0.4461
vn 0.5497 0.6344 -0.5435
vn 0.6271 0.4714 -0.6201
vn 0.6805 0.2903 -0.6728
vn 0.7076 0.0980 -0.6997
vn -0.0000 0.9425 -0.3343
vn -0.0000 0.8820 -0.4713
vn -0.0000 0.7730 -0.6344
vn -0.0000 0.6344 -0.7730
vn -0.0000 0.4714 -0.8819
vn -0.0000 0.2903 -0.9569
vn -0.0000 0.0980 -0.9952
vn -0.2164 0.9543 -0.2061
vn -0.3416 0.8819 -0.3250
vn -0.4596 0.7729 -0.4375
vn -0.5600 0.6343 -0.5331
vn -0.6388 0.4713 -0.6081
vn -0.6931 0.2902 -0.6598
vn -0.7208 0.0980 -0.6862
vn -0.7730 0.6344 -0.0000
vn -0.0000 1.0000 0.0010
vn -0.0000 0.9963 -0.0855
vn 0.0226 0.9853 -0.1693
vn -0.0221 0.9862 -0.1639
vn -0.0004 0.9725 -0.2329
vn -0.0000 -1.0000 -0.0000
vn -0.0037 -0.9865 0.1639
vn 0.3151 -0.9491 -0.0000
vn 0.4714 -0.8819 -0.0000
vn 0.6344 -0.7730 -0.0000
vn 0.7730 -0.6344 -0.0000
vn 0.8819 -0.4714 -0.0000
vn 0.9569 -0.2903 -0.0000
vn 0.9952 -0.0980 -0.0000
vn 0.1868 -0.9538 0.2352
vn 0.3352 -0.8819 0.3314
vn 0.4511 -0.7730 0.4461
vn 0.5497 -0.6344 0.5435
vn 0.6271 -0.4714 0.6201
vn 0.6805 -0.2903 0.6728
vn 0.7076 -0.0980 0.6997
vn -0.0000 -0.9425 0.3343
vn -0.0000 -0.8820 0.4713
vn -0.0000 -0.7730 0.6344
vn -0.0000 -0.6344 0.7730
vn -0.0000 -0.4714 0.8819
vn -0.0000 -0.2903 0.9569
vn -0.0000 -0.0980 0.9952
vn -0.2164 -0.9543 0.2061
vn -0.3416 -0.8819 0.3250
vn -0.4596 -0.7729 0.4375
vn -0.5600 -0.6343 0.5331
vn -0.6388 -0.4713 0.6081
vn -0.6931 -0.2902 0.6598
vn -0.7208 -0.0980 0.6862
vn -0.3151 -0.9491 -0.0000
vn -0.4714 -0.8819 -0.0000
vn -0.6344 -0.7730 -0.0000
vn -0.7730 -0.6344 -0.0000
vn -0.9569 -0.2903 -0.0000
vn -0.9952 -0.0980 -0.0000
vn 0.0737 -0.9973 -0.0000
vn -0.0737 -0.9973 -0.0000
vn -0.0000 -1.0000 -0.0010
vn -0.0000 -0.9963 0.0855
vn 0.0226 -0.9853 0.1693
vn -0.0221 -0.9862 0.1639
vn -0.0004 -0.9725 0.2329
vn -0.0037 -0.9865 -0.1639
vn 0.1868 -0.9538 -0.2352
vn 0.3353 -0.8819 -0.3313
vn 0.4511 -0.7730 -0.4461
vn 0.5497 -0.6344 -0.5435
vn 0.6271 -0.4714 -0.6201
vn 0.6805 -0.2903 -0.6728
vn 0.7077 -0.0980 -0.6997
vn -0.0000 -0.9425 -0.3343
vn -0.0000 -0.8820 -0.4713
vn -0.0000 -0.7730 -0.6344
vn -0.0000 -0.6344 -0.7730
vn -0.0000 -0.4714 -0.8819
vn -0.0000 -0.2903 -0.9569
vn -0.0000 -0.0980 -0.9952
vn -0.1879 -0.9541 -0.2332
vn -0.3416 -0.8819 -0.3250
vn -0.4596 -0.7729 -0.4375
vn -0.5599 -0.6343 -0.5331
vn -0.6388 -0.4713 -0.6081
vn -0.6931 -0.2902 -0.6598
vn -0.7208 -0.0980 -0.6862
vn -0.8819 -0.4714 -0.0000
vn -0.0000 -1.0000 0.0010
vn -0.0000 -0.9963 -0.0855
vn 0.0226 -0.9853 -0.1693
vn -0.0388 -0.9876 -0.1519
vn -0.0004 -0.9725 -0.2329
vn 0.0014 0.9856 0.1693
vn 0.2123 0.9543 0.2102
vn 0.3352 0.8819 0.3314
vn 0.7076 0.0980 0.6997
vn -0.2164 0.9543 0.2061
vn -0.3415 0.8819 0.3251
vn 0.0013 0.9962 0.0866
vn 0.0348 0.9865 0.1602
vn -0.0221 0.9862 0.1639
vn -0.0000 0.9724 0.2332
vn 0.0014 0.9856 -0.1693
vn 0.2123 0.9543 -0.2102
vn 0.3353 0.8819 -0.3313
vn 0.7077 0.0980 -0.6997
vn -0.1879 0.9541 -0.2332
vn -0.3415 0.8819 -0.3251
vn -0.5600 0.6343 -0.5330
vn 0.0013 0.9962 -0.0866
vn 0.0348 0.9865 -0.1602
vn -0.0388 0.9876 -0.1519
vn -0.0000 0.9724 -0.2332
vn 0.0014 -0.9856 0.1693
vn 0.2123 -0.9543 0.2102
vn 0.3353 -0.8819 0.3313
vn 0.7077 -0.0980 0.6997
vn -0.1879 -0.9541 0.2332
vn -0.3415 -0.8819 0.3251
vn -0.5600 -0.6343 0.5330
vn 0.0013 -0.9962 0.0866
vn 0.0348 -0.9865 0.1602
vn -0.0388 -0.9876 0.1519
vn -0.0000 -0.9724 0.2332
vn 0.0014 -0.9856 -0.1693
vn 0.2123 -0.9543 -0.2102
vn 0.3352 -0.8819 -0.3314
vn 0.7076 -0.0980 -0.6997
vn -0.2164 -0.9543 -0.2061
vn -0.3415 -0.8819 -0.3251
vn -0.5600 -0.6343 -0.5330
vn 0.0013 -0.9962 -0.0866
vn 0.0348 -0.9865 -0.1602
vn -0.0221 -0.9862 -0.1639
vn -0.0000 -0.9724 -0.2332
s 0
usemtl MainColor.002
f 3//1 40//1 42//1
f 5//2 18//2 74//2
f 2//3 35//3 33//3
f 78//4 126//5 66//4
f 1//6 28//6 30//6
f 4//7 59//7 127//7
f 112//8 79//8 77//8
f 80//9 85//9 76//9
f 215//1 248//1 250//1
f 5//10 74//10 31//10
f 4//11 127//11 62//11
f 98//12 137//12 80//12
f 79//13 136//13 99//13
f 112//14 136//14 79//14
f 80//15 137//15 85//15
f 78//16 66//16 133//16
f 143//4 142//4 139//4
f 216//17 263//18 261//17
usemtl Lines.002
f 67//19 69//19 66//19
f 73//20 75//20 72//20
f 7//21 81//21 6//21
f 8//22 82//22 7//22
f 10//23 9//23 8//23
f 12//24 11//24 10//24
f 14//25 13//25 12//25
f 16//26 15//26 14//26
f 149//27 83//27 16//27
f 19//28 17//28 18//28
f 19//29 22//29 20//29
f 21//30 24//30 22//30
f 23//31 26//31 24//31
f 25//32 28//32 26//32
f 27//33 30//33 28//33
f 29//34 166//34 30//34
f 32//35 34//35 31//35
f 35//36 34//36 33//36
f 37//37 36//37 35//37
f 39//38 38//38 37//38
f 41//39 40//39 39//39
f 43//40 42//40 41//40
f 181//41 44//41 43//41
f 46//42 48//42 45//42
f 49//43 48//43 47//43
f 51//44 50//44 49//44
f 53//45 52//45 51//45
f 55//46 54//46 53//46
f 57//47 56//47 55//47
f 197//48 58//48 57//48
f 60//49 59//49 126//49
f 61//50 127//50 60//50
f 61//51 128//51 62//51
f 131//52 63//52 130//52
f 64//53 63//53 132//53
f 280//54 65//54 64//54
f 6//55 69//55 68//55
f 67//56 126//56 59//56
f 67//57 71//57 68//57
f 72//58 71//58 70//58
f 18//59 75//59 74//59
f 45//60 72//60 46//60
f 32//61 74//61 73//61
f 138//62 136//62 135//62
f 84//63 86//63 85//63
f 86//64 89//64 88//64
f 88//65 91//65 90//65
f 90//66 93//66 92//66
f 92//67 95//67 94//67
f 94//68 97//68 96//68
f 96//69 238//69 237//69
f 98//70 100//70 99//70
f 101//71 102//71 100//71
f 103//72 104//72 102//72
f 105//73 106//73 104//73
f 107//74 108//74 106//74
f 109//75 110//75 108//75
f 111//76 253//76 110//76
f 113//77 115//77 114//77
f 115//78 116//78 114//78
f 117//79 118//79 116//79
f 119//80 120//80 118//80
f 121//81 122//81 120//81
f 123//82 124//82 122//82
f 125//83 269//83 124//83
f 128//84 131//84 130//84
f 66//85 134//85 133//85
f 134//86 135//86 133//86
f 138//87 85//87 137//87
f 112//88 135//88 136//88
f 137//89 99//89 136//89
f 281//90 206//90 205//90
f 213//91 211//91 210//91
f 218//92 220//92 140//92
f 219//93 141//93 220//93
f 142//94 221//94 141//94
f 143//95 222//95 221//95
f 144//96 145//96 222//96
f 146//97 147//97 145//97
f 148//98 149//98 147//98
f 151//99 153//99 152//99
f 153//100 156//100 155//100
f 155//101 158//101 157//101
f 157//102 160//102 159//102
f 159//103 162//103 161//103
f 161//104 164//104 163//104
f 163//105 166//105 165//105
f 167//106 169//106 168//106
f 170//107 171//107 169//107
f 172//108 173//108 171//108
f 174//109 175//109 173//109
f 176//110 177//110 175//110
f 178//111 179//111 177//111
f 180//112 181//112 179//112
f 184//113 186//113 185//113
f 186//114 187//114 185//114
f 188//115 189//115 187//115
f 190//116 191//116 189//116
f 192//117 193//117 191//117
f 194//118 195//118 193//118
f 196//119 197//119 195//119
f 271//120 272//120 273//120
f 272//121 200//121 273//121
f 200//122 274//122 202//122
f 274//123 276//123 202//123
f 277//124 203//124 278//124
f 204//125 280//125 203//125
f 281//126 140//126 207//126
f 271//127 206//127 199//127
f 206//128 209//128 208//128
f 209//129 210//129 208//129
f 213//130 152//130 212//130
f 183//131 210//131 211//131
f 212//132 168//132 211//132
f 285//133 287//133 284//133
f 225//134 223//134 224//134
f 225//135 228//135 226//135
f 227//136 230//136 228//136
f 229//137 232//137 230//137
f 231//138 234//138 232//138
f 233//139 236//139 234//139
f 235//140 238//140 236//140
f 240//141 242//141 239//141
f 243//142 242//142 241//142
f 245//143 244//143 243//143
f 247//144 246//144 245//144
f 249//145 248//145 247//145
f 251//146 250//146 249//146
f 253//147 252//147 251//147
f 256//148 258//148 255//148
f 259//149 258//149 257//149
f 261//150 260//150 259//150
f 263//151 262//151 261//151
f 265//152 264//152 263//152
f 267//153 266//153 265//153
f 269//154 268//154 267//154
f 277//155 276//155 275//155
f 205//156 283//156 281//156
f 284//157 283//157 282//157
f 224//158 287//158 286//158
f 255//159 284//159 256//159
f 240//160 286//160 285//160
f 67//19 68//19 69//19
f 73//161 74//161 75//161
f 7//21 82//21 81//21
f 8//22 9//22 82//22
f 10//23 11//23 9//23
f 12//24 13//24 11//24
f 14//25 15//25 13//25
f 16//26 83//26 15//26
f 149//27 150//27 83//27
f 19//162 20//162 17//162
f 19//163 21//163 22//163
f 21//30 23//30 24//30
f 23//31 25//31 26//31
f 25//32 27//32 28//32
f 27//33 29//33 30//33
f 29//164 165//164 166//164
f 32//35 33//35 34//35
f 35//36 36//36 34//36
f 37//37 38//37 36//37
f 39//38 40//38 38//38
f 41//39 42//39 40//39
f 43//40 44//40 42//40
f 181//41 182//41 44//41
f 46//165 47//165 48//165
f 49//166 50//166 48//166
f 51//44 52//44 50//44
f 53//45 54//45 52//45
f 55//46 56//46 54//46
f 57//47 58//47 56//47
f 197//48 198//48 58//48
f 60//49 127//49 59//49
f 61//50 62//50 127//50
f 61//51 129//51 128//51
f 131//52 132//52 63//52
f 64//53 65//53 63//53
f 280//54 279//54 65//54
f 6//55 81//55 69//55
f 67//56 66//56 126//56
f 67//57 70//57 71//57
f 72//167 75//167 71//167
f 18//168 17//168 75//168
f 45//169 73//169 72//169
f 32//170 31//170 74//170
f 138//171 137//171 136//171
f 84//172 87//172 86//172
f 86//173 87//173 89//173
f 88//65 89//65 91//65
f 90//66 91//66 93//66
f 92//67 93//67 95//67
f 94//68 95//68 97//68
f 96//174 97//174 238//174
f 98//70 101//70 100//70
f 101//71 103//71 102//71
f 103//72 105//72 104//72
f 105//73 107//73 106//73
f 107//74 109//74 108//74
f 109//75 111//75 110//75
f 111//76 254//76 253//76
f 113//175 112//175 115//175
f 115//176 117//176 116//176
f 117//79 119//79 118//79
f 119//177 121//177 120//177
f 121//81 123//81 122//81
f 123//82 125//82 124//82
f 125//83 270//83 269//83
f 128//84 129//84 131//84
f 66//85 69//85 134//85
f 134//178 138//178 135//178
f 138//179 84//179 85//179
f 112//180 113//180 135//180
f 137//181 98//181 99//181
f 281//90 207//90 206//90
f 213//182 212//182 211//182
f 218//92 219//92 220//92
f 219//93 142//93 141//93
f 142//94 143//94 221//94
f 143//95 144//95 222//95
f 144//96 146//96 145//96
f 146//97 148//97 147//97
f 148//98 150//98 149//98
f 151//183 154//183 153//183
f 153//184 154//184 156//184
f 155//101 156//101 158//101
f 157//102 158//102 160//102
f 159//103 160//103 162//103
f 161//104 162//104 164//104
f 163//185 164//185 166//185
f 167//106 170//106 169//106
f 170//107 172//107 171//107
f 172//108 174//108 173//108
f 174//109 176//109 175//109
f 176//110 178//110 177//110
f 178//111 180//111 179//111
f 180//112 182//112 181//112
f 184//186 183//186 186//186
f 186//187 188//187 187//187
f 188//115 190//115 189//115
f 190//188 192//188 191//188
f 192//117 194//117 193//117
f 194//118 196//118 195//118
f 196//119 198//119 197//119
f 271//120 199//120 272//120
f 272//121 201//121 200//121
f 200//122 201//122 274//122
f 274//123 275//123 276//123
f 277//124 204//124 203//124
f 204//125 279//125 280//125
f 281//126 218//126 140//126
f 271//127 205//127 206//127
f 206//128 207//128 209//128
f 209//189 213//189 210//189
f 213//190 151//190 152//190
f 183//191 184//191 210//191
f 212//192 167//192 168//192
f 285//193 286//193 287//193
f 225//194 226//194 223//194
f 225//195 227//195 228//195
f 227//136 229//136 230//136
f 229//137 231//137 232//137
f 231//138 233//138 234//138
f 233//139 235//139 236//139
f 235//196 237//196 238//196
f 240//141 241//141 242//141
f 243//142 244//142 242//142
f 245//143 246//143 244//143
f 247//144 248//144 246//144
f 249//145 250//145 248//145
f 251//146 252//146 250//146
f 253//147 254//147 252//147
f 256//197 257//197 258//197
f 259//198 260//198 258//198
f 261//150 262//150 260//150
f 263//199 264//199 262//199
f 265//152 266//152 264//152
f 267//153 268//153 266//153
f 269//154 270//154 268//154
f 277//155 278//155 276//155
f 205//156 282//156 283//156
f 284//200 287//200 283//200
f 224//201 223//201 287//201
f 255//202 285//202 284//202
f 240//203 239//203 286//203
l 214 231
l 217 274
